# xmcd
#
# Track frame offsets:
#	150
#	12978
#	24810
#	37178
#	46603
#	68476
#	81227
#	93475
#	111402
#	122427
#
# Disc length: 1781 seconds
#
# Revision: 1
# Processed by: cddbd v1.5.2PL0 Copyright (c) Steve Scherf et al.
# Submitted via: audiograbber 1.83.01
#
DISCID=7206f30a
DTITLE=Bluegrass Composers Workshop - Bluegrass Fever
DYEAR=1999
DGENRE=Bluegrass
TTITLE0=Ols Joe Clark
TTITLE1=Sitting On Top Of The World
TTITLE2=Fireball
TTITLE3=John Henry
TTITLE4=Precius Memories
TTITLE5=Gray Eagle
TTITLE6=Cincinnati Rag
TTITLE7=I´ll Be All Smiles Tonigth
TTITLE8=Jessie James
TTITLE9=Liberty
EXTD=
EXTT0=
EXTT1=
EXTT2=
EXTT3=
EXTT4=
EXTT5=
EXTT6=
EXTT7=
EXTT8=
EXTT9=
PLAYORDER=
